<svg id="visual" viewBox="0 0 900 600" width="900" height="600" xmlns="http://www.w3.org/2000/svg" xmlns:xlink="http://www.w3.org/1999/xlink" version="1.1"><g stroke-width="1" stroke-linejoin="bevel"><path d="M469 326L493 459L574 346Z" fill="#121821" stroke="#121821"></path><path d="M493 459L653 469L574 346Z" fill="#0f151d" stroke="#0f151d"></path><path d="M615 202L453 190L469 326Z" fill="#0d121a" stroke="#0d121a"></path><path d="M752 337L615 202L574 346Z" fill="#10161e" stroke="#10161e"></path><path d="M574 346L615 202L469 326Z" fill="#141b26" stroke="#141b26"></path><path d="M266 424L456 600L493 459Z" fill="#121821" stroke="#121821"></path><path d="M493 459L572 600L653 469Z" fill="#10161e" stroke="#10161e"></path><path d="M284 347L493 459L469 326Z" fill="#131a24" stroke="#131a24"></path><path d="M456 600L572 600L493 459Z" fill="#10161e" stroke="#10161e"></path><path d="M453 190L284 347L469 326Z" fill="#10161e" stroke="#10161e"></path><path d="M653 469L752 337L574 346Z" fill="#111720" stroke="#111720"></path><path d="M787 458L752 337L653 469Z" fill="#151d29" stroke="#151d29"></path><path d="M284 347L266 424L493 459Z" fill="#151d29" stroke="#151d29"></path><path d="M705 600L787 458L653 469Z" fill="#131923" stroke="#131923"></path><path d="M900 286L731 202L752 337Z" fill="#151d29" stroke="#151d29"></path><path d="M752 337L731 202L615 202Z" fill="#0e131b" stroke="#0e131b"></path><path d="M469 0L274 126L453 190Z" fill="#10161e" stroke="#10161e"></path><path d="M572 600L705 600L653 469Z" fill="#0f151d" stroke="#0f151d"></path><path d="M266 424L280 600L456 600Z" fill="#151d29" stroke="#151d29"></path><path d="M453 190L274 126L284 347Z" fill="#10161e" stroke="#10161e"></path><path d="M284 347L143 344L266 424Z" fill="#141b26" stroke="#141b26"></path><path d="M542 0L453 190L615 202Z" fill="#141c27" stroke="#141c27"></path><path d="M177 208L143 344L284 347Z" fill="#141b26" stroke="#141b26"></path><path d="M266 424L115 448L280 600Z" fill="#0d121a" stroke="#0d121a"></path><path d="M274 126L177 208L284 347Z" fill="#131a24" stroke="#131a24"></path><path d="M697 0L542 0L615 202Z" fill="#141b26" stroke="#141b26"></path><path d="M900 600L900 395L787 458Z" fill="#141b26" stroke="#141b26"></path><path d="M787 458L900 395L752 337Z" fill="#0d121a" stroke="#0d121a"></path><path d="M542 0L469 0L453 190Z" fill="#10161e" stroke="#10161e"></path><path d="M900 395L900 286L752 337Z" fill="#121821" stroke="#121821"></path><path d="M731 202L697 0L615 202Z" fill="#151d29" stroke="#151d29"></path><path d="M0 300L115 448L143 344Z" fill="#141c27" stroke="#141c27"></path><path d="M143 344L115 448L266 424Z" fill="#111720" stroke="#111720"></path><path d="M900 0L697 0L731 202Z" fill="#111720" stroke="#111720"></path><path d="M900 286L900 203L731 202Z" fill="#131923" stroke="#131923"></path><path d="M705 600L900 600L787 458Z" fill="#141b26" stroke="#141b26"></path><path d="M274 126L163 0L177 208Z" fill="#111720" stroke="#111720"></path><path d="M469 0L291 0L274 126Z" fill="#131a24" stroke="#131a24"></path><path d="M115 448L114 600L280 600Z" fill="#0d121a" stroke="#0d121a"></path><path d="M0 153L0 300L177 208Z" fill="#141c27" stroke="#141c27"></path><path d="M177 208L0 300L143 344Z" fill="#0f151d" stroke="#0f151d"></path><path d="M115 448L0 482L114 600Z" fill="#0f151d" stroke="#0f151d"></path><path d="M0 300L0 482L115 448Z" fill="#0e131b" stroke="#0e131b"></path><path d="M291 0L163 0L274 126Z" fill="#141c27" stroke="#141c27"></path><path d="M900 203L900 0L731 202Z" fill="#0d121a" stroke="#0d121a"></path><path d="M0 482L0 600L114 600Z" fill="#0f151d" stroke="#0f151d"></path><path d="M163 0L0 153L177 208Z" fill="#111720" stroke="#111720"></path><path d="M163 0L0 0L0 153Z" fill="#141c27" stroke="#141c27"></path></g></svg>