<svg id="visual" viewBox="0 0 900 600" width="900" height="600" xmlns="http://www.w3.org/2000/svg" xmlns:xlink="http://www.w3.org/1999/xlink" version="1.1"><path d="M0 91L100 91L200 47L300 60L400 60L500 85L600 57L700 90L800 53L900 44L900 0L800 0L700 0L600 0L500 0L400 0L300 0L200 0L100 0L0 0Z" fill="#151d29"></path><path d="M0 44L100 101L200 52L300 66L400 74L500 49L600 42L700 37L800 66L900 83L900 0L800 0L700 0L600 0L500 0L400 0L300 0L200 0L100 0L0 0Z" fill="#141c27"></path><path d="M0 38L100 31L200 31L300 72L400 38L500 55L600 51L700 76L800 57L900 41L900 0L800 0L700 0L600 0L500 0L400 0L300 0L200 0L100 0L0 0Z" fill="#121a24"></path><path d="M0 67L100 35L200 44L300 48L400 35L500 38L600 47L700 52L800 72L900 52L900 0L800 0L700 0L600 0L500 0L400 0L300 0L200 0L100 0L0 0Z" fill="#111922"></path><path d="M0 19L100 30L200 24L300 22L400 38L500 44L600 52L700 27L800 19L900 53L900 0L800 0L700 0L600 0L500 0L400 0L300 0L200 0L100 0L0 0Z" fill="#101820"></path><path d="M0 24L100 40L200 20L300 42L400 8L500 21L600 16L700 37L800 25L900 37L900 0L800 0L700 0L600 0L500 0L400 0L300 0L200 0L100 0L0 0Z" fill="#0e161d"></path><path d="M0 16L100 23L200 0L300 13L400 0L500 3L600 3L700 10L800 22L900 10L900 0L800 0L700 0L600 0L500 0L400 0L300 0L200 0L100 0L0 0Z" fill="#0d151b"></path></svg>